#!OML:ASF H:\LiuWeirdWalks\Patient Classification 1\Patient 1\Session 1\male.ASF
:FULLY-SPECIFIED
:DEGREES
316
root 0.336966 18.0164 -18.7751 3.23048 3.41171 1.73514
lowerback 5.46714 0.908815 -5.17108
upperback -0.711759 0.908513 1.2402
thorax -3.91219 0.578887 4.11612
lowerneck -18.8784 4.45894 16.5129
upperneck 17.0383 4.62277 -14.867
head 9.21407 1.71947 -7.3767
rclavicle -1.55549e-014 5.1684e-015
rhumerus -31.5927 -9.31365 -79.3144
rradius 24.7942
rwrist -3.2877
rhand -14.405 -1.39007
rfingers 7.12502
rthumb 11.7386 -31.0412
lclavicle -1.55549e-014 5.1684e-015
lhumerus -36.425 6.90491 83.2902
lradius 25.4014
lwrist 3.96482
lhand -10.5306 1.78573
lfingers 7.12502
lthumb 15.4726 31.1865
rfemur -6.56704 -7.41426 13.8905
rtibia 59.3543
rfoot 13.2359 -22.774
rtoes -1.74981
lfemur -20.0543 3.32244 -23.1877
ltibia 23.2429
lfoot -8.2463 7.20834
ltoes -14.4337
317
root 0.368008 18.025 -18.6642 3.11459 3.5834 2.15073
lowerback 5.56829 0.853933 -5.70411
upperback -0.656603 0.79005 1.13261
thorax -3.90608 0.528909 4.31555
lowerneck -18.9553 4.54477 16.5638
upperneck 17.1292 4.72041 -14.8494
head 9.27779 1.76877 -7.36974
rclavicle 5.29264e-015 5.56597e-015
rhumerus -31.4121 -9.12743 -79.572
rradius 25.0611
rwrist -3.54927
rhand -14.5116 -1.44546
rfingers 7.12502
rthumb 11.6357 -31.1024
lclavicle 5.29264e-015 5.56597e-015
lhumerus -36.1624 6.4086 83.4529
lradius 25.6381
lwrist 4.12523
lhand -10.6422 1.71938
lfingers 7.12502
lthumb 15.3652 31.1285
rfemur -7.80646 -7.91328 13.3727
rtibia 61.3227
rfoot 12.4985 -23.3729
rtoes -1.48818
lfemur -19.24 3.46503 -23.7329
ltibia 22.7739
lfoot -8.34509 6.8603
ltoes -14.222
318
root 0.398014 18.0331 -18.5534 2.99242 3.76354 2.44431
lowerback 5.65868 0.796147 -6.1098
upperback -0.600302 0.677742 1.05935
thorax -3.89027 0.479112 4.47849
lowerneck -18.9741 4.62861 16.6162
upperneck 17.1608 4.82047 -14.8389
head 9.31138 1.81996 -7.36223
rclavicle 1.08835e-014 -1.66979e-014
rhumerus -31.2448 -8.91529 -79.831
rradius 25.3634
rwrist -3.85843
rhand -14.6058 -1.47174
rfingers 7.12502
rthumb 11.5449 -31.1338
lclavicle 1.08835e-014 -1.66979e-014
lhumerus -35.8934 5.97107 83.5747
lradius 25.8595
lwrist 4.23383
lhand -10.8093 1.64895
lfingers 7.12502
lthumb 15.2042 31.0703
rfemur -9.01243 -8.39693 13.0216
rtibia 63.1049
rfoot 11.6522 -23.9464
rtoes -1.09826
lfemur -18.4664 3.60575 -24.1319
ltibia 22.3818
lfoot -8.45258 6.52832
ltoes -13.9646
319
root 0.426696 18.0409 -18.4436 2.87889 3.97008 2.63643
lowerback 5.74521 0.735051 -6.40811
upperback -0.560909 0.568795 1.01174
thorax -3.88795 0.429704 4.60732
lowerneck -18.9622 4.67664 16.6284
upperneck 17.1911 4.88102 -14.8021
head 9.32988 1.8536 -7.34293
rclavicle -5.81445e-015 -1.31198e-014
rhumerus -31.1228 -8.67696 -80.0872
rradius 25.7152
rwrist -4.21707
rhand -14.6728 -1.53051
rfingers 7.12502
rthumb 11.4803 -31.1962
lclavicle -5.81445e-015 -1.31198e-014
lhumerus -35.6236 5.58699 83.6552
lradius 26.0669
lwrist 4.29687
lhand -10.987 1.60342
lfingers 7.12502
lthumb 15.033 31.0377
rfemur -10.1986 -8.8743 12.8148
rtibia 64.6935
rfoot 10.5785 -24.2244
rtoes -0.89165
lfemur -17.7564 3.74956 -24.4123
ltibia 22.0737
lfoot -8.56775 6.18987
ltoes -13.652
320
root 0.454604 18.0485 -18.334 2.76509 4.21002 2.73291
lowerback 5.82947 0.665691 -6.60131
upperback -0.530204 0.456719 0.988913
thorax -3.89106 0.37715 4.70307
lowerneck -18.8939 4.70186 16.6587
upperneck 17.1633 4.9157 -14.7992
head 9.31486 1.87426 -7.34051
rclavicle -5.889e-015 1.63003e-014
rhumerus -31.025 -8.41693 -80.3425
rradius 26.0993
rwrist -4.61294
rhand -14.7282 -1.61864
rfingers 7.12502
rthumb 11.4269 -31.2872
lclavicle -5.889e-015 1.63003e-014
lhumerus -35.3483 5.26243 83.6964
lradius 26.2695
lwrist 4.36881
lhand -11.1559 1.56861
lfingers 7.12502
lthumb 14.8703 31.0149
rfemur -11.3491 -9.34424 12.7404
rtibia 66.0841
rfoot 9.51505 -24.4397
rtoes -0.65983
lfemur -17.0979 3.87495 -24.58
ltibia 21.8533
lfoot -8.702 5.86156
ltoes -13.2881
321
root 0.481621 18.0555 -18.2249 2.66028 4.47059 2.75815
lowerback 5.89382 0.595248 -6.71286
upperback -0.498988 0.350793 0.980356
thorax -3.88185 0.325613 4.76713
lowerneck -18.8038 4.70136 16.6944
upperneck 17.1054 4.91743 -14.814
head 9.28023 1.87852 -7.34899
rclavicle -1.22004e-014 -5.56597e-015
rhumerus -30.9226 -8.16561 -80.5911
rradius 26.4846
rwrist -4.99813
rhand -14.7639 -1.67006
rfingers 7.12502
rthumb 11.3925 -31.3406
lclavicle -1.22004e-014 -5.56597e-015
lhumerus -35.0495 4.9957 83.6995
lradius 26.4622
lwrist 4.4146
lhand -11.3134 1.52205
lfingers 7.12502
lthumb 14.7186 30.9795
rfemur -12.4842 -9.79237 12.7712
rtibia 67.2862
rfoot 8.51258 -24.5976
rtoes -0.476399
lfemur -16.4963 3.97571 -24.6629
ltibia 21.7097
lfoot -8.85706 5.55672
ltoes -12.8977
322
root 0.508112 18.0617 -18.1162 2.5676 4.74835 2.75027
lowerback 5.9471 0.522622 -6.78244
upperback -0.477899 0.245652 0.978761
thorax -3.8764 0.274047 4.81472
lowerneck -18.707 4.68906 16.7283
upperneck 17.0715 4.90741 -14.8333
head 9.25056 1.87723 -7.3616
rclavicle -1.1281e-014 1.39149e-014
rhumerus -30.8377 -7.90455 -80.8319
rradius 26.8785
rwrist -5.40193
rhand -14.7916 -1.7035
rfingers 7.12502
rthumb 11.3658 -31.3755
lclavicle -1.1281e-014 1.39149e-014
lhumerus -34.7427 4.79208 83.6736
lradius 26.6448
lwrist 4.46419
lhand -11.4703 1.44929
lfingers 7.12502
lthumb 14.5674 30.9178
rfemur -13.6017 -10.2276 12.8571
rtibia 68.3089
rfoot 7.56584 -24.6624
rtoes -0.45059
lfemur -15.9438 4.04933 -24.7055
ltibia 21.6299
lfoot -9.03887 5.27736
ltoes -12.5136
323
root 0.533722 18.0668 -18.0079 2.48529 5.05119 2.7356
lowerback 5.97694 0.44753 -6.84042
upperback -0.44669 0.14001 0.975766
thorax -3.84671 0.220805 4.85429
lowerneck -18.5972 4.45887 16.2322
upperneck 17.0562 4.64758 -14.3964
head 9.15291 1.76893 -7.14463
rclavicle -9.54166e-015 1.78906e-015
rhumerus -30.7382 -7.6486 -81.066
rradius 27.2694
rwrist -5.78003
rhand -14.8083 -1.68618
rfingers 7.12502
rthumb 11.3496 -31.3591
lclavicle -9.54166e-015 1.78906e-015
lhumerus -34.39 4.63795 83.6266
lradius 26.8126
lwrist 4.51481
lhand -11.632 1.35697
lfingers 7.12502
lthumb 14.4116 30.8366
rfemur -14.7002 -10.6525 12.9715
rtibia 69.1623
rfoot 6.61656 -24.6304
rtoes -0.536158
lfemur -15.4316 4.08891 -24.7353
ltibia 21.6
lfoot -9.24278 5.02003
ltoes -12.1623
324
root 0.559032 18.0703 -17.9 2.4052 5.36663 2.739
lowerback 6.00318 0.373176 -6.91003
upperback -0.412719 0.034679 0.967967
thorax -3.81195 0.167606 4.89531
lowerneck -18.4668 3.89219 14.8438
upperneck 17.0199 4.0022 -13.1762
head 8.94441 1.49842 -6.53467
rclavicle 1.59028e-014 1.03368e-014
rhumerus -30.6394 -7.37737 -81.2933
rradius 27.67
rwrist -6.14672
rhand -14.8341 -1.71132
rfingers 7.12502
rthumb 11.3247 -31.3856
lclavicle 1.59028e-014 1.03368e-014
lhumerus -34.0138 4.52427 83.5716
lradius 26.9785
lwrist 4.60839
lhand -11.7979 1.33612
lfingers 7.12502
lthumb 14.2517 30.8271
rfemur -15.7714 -11.0669 13.0768
rtibia 69.8518
rfoot 5.68088 -24.4681
rtoes -0.69466
lfemur -14.94 4.09418 -24.7812
ltibia 21.6066
lfoot -9.47315 4.79382
ltoes -11.8821
325
root 0.583448 18.0716 -17.7928 2.32886 5.71848 2.78318
lowerback 6.03758 0.292035 -7.02503
upperback -0.380569 -0.083909 0.953821
thorax -3.78176 0.108846 4.95662
lowerneck -18.2348 3.02998 12.6853
upperneck 16.9163 3.02411 -11.2661
head 8.64496 1.09267 -5.59338
rclavicle -1.17283e-014 1.33186e-014
rhumerus -30.5594 -7.07526 -81.5115
rradius 28.0872
rwrist -6.50063
rhand -14.8609 -1.73241
rfingers 7.12502
rthumb 11.2989 -31.4081
lclavicle -1.17283e-014 1.33186e-014
lhumerus -33.6306 4.44112 83.5166
lradius 27.1581
lwrist 4.7618
lhand -11.9809 1.3923
lfingers 7.12502
lthumb 14.0754 30.8956
rfemur -16.8067 -11.4866 13.1495
rtibia 70.3819
rfoot 4.69873 -24.1994
rtoes -0.936515
lfemur -14.4684 4.07361 -24.8681
ltibia 21.6454
lfoot -9.7239 4.56761
ltoes -11.6616
326
root 0.607838 18.0707 -17.6852 2.24371 6.07829 2.8559
lowerback 6.07926 0.209724 -7.16661
upperback -0.340525 -0.206384 0.937925
thorax -3.74643 0.0481831 5.03149
lowerneck -17.8671 1.98771 10.056
upperneck 16.6777 1.84142 -8.91692
head 8.29386 0.606411 -4.45839
rclavicle -7.92654e-015 7.95139e-015
rhumerus -30.493 -6.71919 -81.7238
rradius 28.5276
rwrist -6.85478
rhand -14.8876 -1.74836
rfingers 7.12502
rthumb 11.2732 -31.4254
lclavicle -7.92654e-015 7.95139e-015
lhumerus -33.2461 4.38053 83.4697
lradius 27.361
lwrist 4.97807
lhand -12.1725 1.51169
lfingers 7.12502
lthumb 13.8908 31.0278
rfemur -17.7934 -11.8864 13.1957
rtibia 70.7511
rfoot 3.64408 -23.8489
rtoes -1.36386
lfemur -13.9983 4.01629 -24.9817
ltibia 21.7195
lfoot -9.99797 4.38494
ltoes -11.4932
327
root 0.63153 18.0674 -17.5779 2.15954 6.44904 2.943
lowerback 6.12362 0.12657 -7.32508
upperback -0.299739 -0.331438 0.922274
thorax -3.71087 -0.0135471 5.11643
lowerneck -17.461 0.966943 7.40054
upperneck 16.4194 0.677961 -6.49058
head 7.99968 0.134615 -3.31208
rclavicle -4.88265e-015 -2.04748e-014
rhumerus -30.4539 -6.30452 -81.9354
rradius 29.0087
rwrist -7.22772
rhand -14.9207 -1.80929
rfingers 7.12502
rthumb 11.2412 -31.4881
lclavicle -4.88265e-015 -2.04748e-014
lhumerus -32.8624 4.33091 83.4316
lradius 27.5924
lwrist 5.25474
lhand -12.3558 1.6794
lfingers 7.12502
lthumb 13.7141 31.2075
rfemur -18.7438 -12.2618 13.2381
rtibia 70.9621
rfoot 2.51162 -23.4581
rtoes -1.88761
lfemur -13.5527 3.94617 -25.106
ltibia 21.8406
lfoot -10.2913 4.21859
ltoes -11.3597
328
root 0.654305 18.062 -17.4711 2.08456 6.82891 3.02671
lowerback 6.17055 0.0426498 -7.48561
upperback -0.266144 -0.457995 0.911931
thorax -3.68338 -0.0754959 5.20831
lowerneck -17.0782 0.177847 5.34272
upperneck 16.1434 -0.229365 -4.58501
head 7.78012 -0.23283 -2.42686
rclavicle 4.29872e-015 -1.23246e-014
rhumerus -30.4584 -5.84482 -82.1416
rradius 29.5343
rwrist -7.60481
rhand -14.9606 -1.89127
rfingers 7.12502
rthumb 11.2028 -31.5722
lclavicle 4.29872e-015 -1.23246e-014
lhumerus -32.4941 4.27879 83.4045
lradius 27.855
lwrist 5.58508
lhand -12.5392 1.87331
lfingers 7.12502
lthumb 13.5374 31.4133
rfemur -19.67 -12.6078 13.3018
rtibia 71.0144
rfoot 1.31773 -23.0765
rtoes -2.52318
lfemur -13.1466 3.87409 -25.2209
ltibia 22.0154
lfoot -10.6058 4.0616
ltoes -11.2326
329
root 0.676021 18.0546 -17.3647 2.02822 7.20963 3.08879
lowerback 6.19779 -0.0388693 -7.62886
upperback -0.234281 -0.578316 0.908767
thorax -3.64689 -0.13501 5.29714
lowerneck -16.8444 -0.319018 4.03357
upperneck 15.9643 -0.806467 -3.35635
head 7.66171 -0.466356 -1.86307
rclavicle -2.50966e-014 1.49089e-014
rhumerus -30.4533 -5.38808 -82.336
rradius 30.0422
rwrist -7.94911
rhand -15.0053 -1.96099
rfingers 7.12502
rthumb 11.1596 -31.6442
lclavicle -2.50966e-014 1.49089e-014
lhumerus -32.1335 4.22235 83.3845
lradius 28.1501
lwrist 5.93608
lhand -12.7075 2.06554
lfingers 7.12502
lthumb 13.3751 31.6162
rfemur -20.586 -12.9084 13.4112
rtibia 70.9118
rfoot 0.0846496 -22.721
rtoes -3.24713
lfemur -12.7971 3.79794 -25.3061
ltibia 22.251
lfoot -10.9429 3.92036
ltoes -11.1216
330
root 0.696641 18.0454 -17.2586 1.99759 7.60012 3.14994
lowerback 6.22428 -0.117495 -7.77454
upperback -0.218809 -0.695484 0.907279
thorax -3.627 -0.191787 5.38893
lowerneck -16.7974 -0.496023 3.54111
upperneck 15.9168 -1.013 -2.88823
head 7.63538 -0.54894 -1.64926
rclavicle 4.34841e-016 -5.96354e-016
rhumerus -30.4835 -4.92995 -82.5142
rradius 30.5563
rwrist -8.24959
rhand -15.077 -1.98952
rfingers 7.12502
rthumb 11.0905 -31.6765
lclavicle 4.34841e-016 -5.96354e-016
lhumerus -31.7835 4.14552 83.3777
lradius 28.4547
lwrist 6.30672
lhand -12.8622 2.21569
lfingers 7.12502
lthumb 13.226 31.7761
rfemur -21.4923 -13.1835 13.5394
rtibia 70.6583
rfoot -1.13989 -22.4031
rtoes -3.93906
lfemur -12.5034 3.72536 -25.3855
ltibia 22.5384
lfoot -11.2978 3.77859
ltoes -11.0123
